<svg xmlns="http://www.w3.org/2000/svg" width="25" height="25" viewBox="0 0 25 25" fill="none">
  <mask id="mask0_503_7260" style="mask-type:alpha" maskUnits="userSpaceOnUse" x="0" y="0" width="25" height="25">
    <rect x="0.741211" y="0.0849609" width="24" height="24" fill="#D9D9D9"/>
  </mask>
  <g mask="url(#mask0_503_7260)">
    <path d="M5.8058 20.5849C5.376 20.5849 5.00787 20.4317 4.7014 20.1252C4.39493 19.8187 4.2417 19.4506 4.2417 19.0208V5.14906C4.2417 4.71926 4.39493 4.35113 4.7014 4.04466C5.00787 3.73819 5.376 3.58496 5.8058 3.58496H19.6775C20.1073 3.58496 20.4755 3.73819 20.7819 4.04466C21.0884 4.35113 21.2417 4.71926 21.2417 5.14906V19.0208C21.2417 19.4506 21.0884 19.8187 20.7819 20.1252C20.4755 20.4317 20.1073 20.5849 19.6775 20.5849H5.8058ZM5.8058 19.3285H19.6775C19.7545 19.3285 19.825 19.2965 19.8891 19.2324C19.9532 19.1683 19.9853 19.0977 19.9853 19.0208V5.14906C19.9853 5.07213 19.9532 5.00161 19.8891 4.93751C19.825 4.8734 19.7545 4.84134 19.6775 4.84134H5.8058C5.72887 4.84134 5.65835 4.8734 5.59425 4.93751C5.53013 5.00161 5.49807 5.07213 5.49807 5.14906V19.0208C5.49807 19.0977 5.53013 19.1683 5.59425 19.2324C5.65835 19.2965 5.72887 19.3285 5.8058 19.3285Z" fill="#191919"/>
  </g>
</svg>