<svg width="14" height="15" viewBox="0 0 14 15" fill="none" xmlns="http://www.w3.org/2000/svg">
<path d="M10.6667 14.1908H4V5.52409L8.66667 0.857422L9.5 1.69076C9.57778 1.76853 9.64167 1.87409 9.69167 2.00742C9.74167 2.14076 9.76667 2.26853 9.76667 2.39076V2.62409L9.03333 5.52409H12.6667C13.0222 5.52409 13.3333 5.65742 13.6 5.92409C13.8667 6.19075 14 6.50187 14 6.85742V8.19075C14 8.26853 13.9917 8.35187 13.975 8.44075C13.9583 8.52964 13.9333 8.61298 13.9 8.69075L11.9 13.3908C11.8 13.613 11.6333 13.8019 11.4 13.9574C11.1667 14.113 10.9222 14.1908 10.6667 14.1908ZM2.66667 5.52409V14.1908H0V5.52409H2.66667Z" fill="#4F4F4F"/>
</svg>
