<svg width="36" height="36" viewBox="0 0 24 24" fill="none" xmlns="http://www.w3.org/2000/svg">
<mask id="mask0_15_53107" style="mask-type:alpha" maskUnits="userSpaceOnUse" x="0" y="0" width="24" height="24">
<rect width="36" height="36" fill="#D9D9D9"/>
</mask>
<g mask="url(#mask0_15_53107)">
<path d="M12 21.0004L10.55 19.7004C8.86667 18.1837 7.475 16.8754 6.375 15.7754C5.275 14.6754 4.4 13.6879 3.75 12.8129C3.1 11.9379 2.64583 11.1337 2.3875 10.4004C2.12917 9.66706 2 8.91706 2 8.15039C2 6.58372 2.525 5.27539 3.575 4.22539C4.625 3.17539 5.93333 2.65039 7.5 2.65039C8.36667 2.65039 9.19167 2.83372 9.975 3.20039C10.7583 3.56706 11.4333 4.08372 12 4.75039C12.5667 4.08372 13.2417 3.56706 14.025 3.20039C14.8083 2.83372 15.6333 2.65039 16.5 2.65039C18.0667 2.65039 19.375 3.17539 20.425 4.22539C21.475 5.27539 22 6.58372 22 8.15039C22 8.91706 21.8708 9.66706 21.6125 10.4004C21.3542 11.1337 20.9 11.9379 20.25 12.8129C19.6 13.6879 18.725 14.6754 17.625 15.7754C16.525 16.8754 15.1333 18.1837 13.45 19.7004L12 21.0004Z" fill="white"/>
</g>
</svg>
