<svg width="25" height="24" viewBox="0 0 25 24" fill="none" xmlns="http://www.w3.org/2000/svg">
<path d="M21.875 8L18.1658 9.97822C16.0979 11.0811 15.064 11.6326 13.969 11.8488C12.9998 12.0401 12.0002 12.0401 11.031 11.8488C9.93608 11.6326 8.90211 11.0811 6.83417 9.97822L3.125 8M6.45833 19H18.5417C19.7084 19 20.2919 19 20.7375 18.782C21.1295 18.5903 21.4482 18.2843 21.6479 17.908C21.875 17.4802 21.875 16.9201 21.875 15.8V8.2C21.875 7.0799 21.875 6.51984 21.6479 6.09202C21.4482 5.71569 21.1295 5.40973 20.7375 5.21799C20.2919 5 19.7084 5 18.5417 5H6.45833C5.29156 5 4.70817 5 4.26252 5.21799C3.87051 5.40973 3.5518 5.71569 3.35207 6.09202C3.125 6.51984 3.125 7.07989 3.125 8.2V15.8C3.125 16.9201 3.125 17.4802 3.35207 17.908C3.5518 18.2843 3.87051 18.5903 4.26252 18.782C4.70817 19 5.29155 19 6.45833 19Z" stroke="#575555" stroke-width="1.28" stroke-linecap="round" stroke-linejoin="round"/>
</svg>