<svg xmlns="http://www.w3.org/2000/svg" width="25" height="24" viewBox="0 0 25 24" fill="none">
<mask id="mask0_286_83" style="mask-type:alpha" maskUnits="userSpaceOnUse" x="0" y="0" width="25" height="24">
<rect x="0.5" width="24" height="24" fill="#D9D9D9"/>
</mask>
<g mask="url(#mask0_286_83)">
<path d="M12.4993 13C12.3575 13 12.2388 12.9521 12.1433 12.8563C12.0478 12.7605 12 12.6417 12 12.5V4.34619C12 4.20453 12.048 4.08577 12.1439 3.98994C12.2399 3.89411 12.3588 3.84619 12.5007 3.84619C12.6425 3.84619 12.7612 3.89411 12.8567 3.98994C12.9522 4.08577 13 4.20453 13 4.34619V12.5C13 12.6417 12.952 12.7605 12.8561 12.8563C12.7601 12.9521 12.6412 13 12.4993 13ZM12.5011 20C11.3914 20 10.3516 19.7914 9.38173 19.3741C8.41186 18.9568 7.56442 18.3856 6.83942 17.6606C6.11442 16.9356 5.54327 16.0884 5.12595 15.1191C4.70865 14.1497 4.5 13.11 4.5 12C4.5 10.9013 4.71795 9.85581 5.15385 8.86349C5.58973 7.87119 6.21217 6.9885 7.02115 6.21542C7.12757 6.11798 7.24872 6.07247 7.3846 6.07889C7.5205 6.08529 7.63828 6.13833 7.73795 6.23799C7.82932 6.32936 7.87012 6.44126 7.86035 6.57369C7.85058 6.70614 7.79201 6.82454 7.68463 6.92889C6.97308 7.60452 6.43108 8.37967 6.05865 9.25434C5.68622 10.129 5.5 11.0442 5.5 12C5.5 13.95 6.17917 15.6042 7.5375 16.9625C8.89583 18.3209 10.55 19 12.5 19C14.45 19 16.1042 18.3209 17.4625 16.9625C18.8208 15.6042 19.5 13.95 19.5 12C19.5 11.0398 19.3128 10.1215 18.9385 9.24524C18.5641 8.36896 18.0212 7.59299 17.3096 6.91734C17.2032 6.81991 17.1458 6.70313 17.1375 6.56699C17.1292 6.43086 17.1732 6.316 17.2695 6.22242C17.3651 6.12032 17.4806 6.06927 17.6161 6.06927C17.7515 6.06927 17.8724 6.11798 17.9789 6.21542C18.7878 6.9885 19.4103 7.87119 19.8462 8.86349C20.2821 9.85581 20.5 10.9013 20.5 12C20.5 13.11 20.2913 14.1497 19.874 15.1191C19.4567 16.0884 18.8856 16.9356 18.1606 17.6606C17.4356 18.3856 16.5885 18.9568 15.6194 19.3741C14.6502 19.7914 13.6108 20 12.5011 20Z" fill="#1C1B1F"/>
</g>
</svg>