<svg xmlns="http://www.w3.org/2000/svg" width="101" height="25" viewBox="0 0 101 25" fill="none">
  <g clip-path="url(#clip0_1384_28426)">
    <path d="M36.9056 23.8153C35.9491 23.8153 35.1665 23.0328 35.1665 22.0764V16.6423C35.1665 15.1353 33.9346 13.9036 32.4274 13.9036C30.9201 13.9036 29.6882 15.1353 29.6882 16.6423V22.0764C29.6882 23.0328 28.9056 23.8153 27.9491 23.8153C26.9926 23.8153 26.21 23.0328 26.21 22.0764V16.6423C26.21 13.208 29.0071 10.4258 32.4274 10.4258C35.8621 10.4258 38.6447 13.2225 38.6447 16.6423V22.0764C38.6447 23.0328 37.8621 23.8153 36.9056 23.8153Z" fill="#8200FF"/>
    <path d="M53.6159 13.9778H46.9637C46.0072 13.9778 45.2246 13.1953 45.2246 12.2389C45.2246 11.2825 46.0072 10.5 46.9637 10.5H53.6159C54.5724 10.5 55.355 11.2825 55.355 12.2389C55.355 13.1953 54.5724 13.9778 53.6159 13.9778Z" fill="#8200FF"/>
    <path d="M5.47101 23.8168C5.2826 23.8168 5.0797 23.7878 4.8913 23.7153C3.97825 23.3821 3.51448 22.3967 3.83333 21.4982C3.93477 21.1939 5.41303 17.0641 7.06521 12.7168C4.39854 10.3113 1.90579 7.42767 1.49999 6.94947C0.876804 6.22493 0.963761 5.12363 1.6884 4.50052C2.41304 3.87742 3.51448 3.96436 4.13767 4.6889C5.22463 5.9641 6.81883 7.6885 8.41303 9.21004C9.31159 6.94947 10.1667 4.89178 10.8188 3.63107C11.442 2.37037 12.8623 0.312677 15.2246 0.674948C17.6739 1.03722 19.6304 4.03682 20.4275 8.67388C21.0942 12.4995 19.8333 14.4412 18.6449 15.3831C16.8913 16.7887 14.1956 16.9481 11.4275 15.8179C10.9493 15.6295 10.442 15.3397 9.90579 14.9774C8.39854 18.9913 7.12318 22.5851 7.09419 22.6575C6.84782 23.3676 6.18115 23.8168 5.47101 23.8168ZM11.1956 11.6445C11.7898 12.0937 12.3261 12.427 12.7609 12.6009C14.2826 13.224 15.7754 13.253 16.4855 12.6733C17.3406 11.9778 17.1812 10.2389 17.0217 9.268C16.4855 6.16697 15.471 4.67441 14.9493 4.25418C14.8333 4.15274 14.6739 4.16723 14.558 4.26867C14.3985 4.42807 14.1667 4.71789 13.9203 5.21057C13.2101 6.57271 12.2101 9.00717 11.1956 11.6445Z" fill="#8200FF"/>
    <path d="M24.9348 21.441L22.4565 14.4999C22.1232 13.5724 20.8334 13.442 20.3551 14.3115C20.1522 14.6738 19.9203 14.9925 19.6884 15.2534C19.3986 15.5722 19.3116 16.0359 19.4565 16.4416L21.6884 22.6727C21.9493 23.3827 22.616 23.8319 23.3261 23.8319C23.529 23.8319 23.7319 23.803 23.9348 23.716C24.8189 23.3682 25.2536 22.3394 24.9348 21.441Z" fill="#8200FF"/>
    <path d="M67.2249 9.34263C67.2249 9.34263 67.022 9.47305 66.993 9.5455C66.964 9.47305 66.7611 9.34263 66.7611 9.34263C66.051 8.77749 64.6452 9.00934 64.9205 10.5743C65.1959 12.1394 67.0075 12.748 67.0075 12.748C67.0075 12.748 68.8191 12.1394 69.0944 10.5743C69.3698 9.00934 67.9495 8.77749 67.2249 9.34263Z" fill="#FF59F1"/>
    <path d="M65.7175 23.7886C65.4566 23.7886 65.1958 23.7307 64.9494 23.6003C64.4131 23.3104 64.0798 22.7598 64.0798 22.1657V20.3398C62.2682 19.7892 60.6305 18.7313 59.3842 17.2678C57.8189 15.4564 56.9639 13.1234 56.9639 10.7179C56.9639 5.18242 61.4566 0.675781 66.9928 0.675781C72.5291 0.675781 77.0218 5.19692 77.0218 10.7324C77.0218 13.8914 75.5871 16.8041 73.0798 18.7168C71.0073 20.5862 66.8044 23.3974 66.6305 23.5133C66.3552 23.7017 66.0363 23.7886 65.7175 23.7886ZM66.9928 3.95071C63.2682 3.95071 60.2392 6.99378 60.2392 10.7179C60.2392 14.0653 62.6305 16.8765 65.9204 17.4127H65.9639C66.761 17.5286 67.3552 18.2242 67.3552 19.0212C68.6015 18.1227 70.0363 17.0504 70.9349 16.2389C70.9784 16.2099 71.0073 16.1665 71.0508 16.1375C72.7755 14.8478 73.761 12.8626 73.761 10.7179C73.761 6.99378 70.7175 3.95071 66.9928 3.95071Z" fill="#8200FF"/>
    <path d="M42.0653 23.8019C41.1088 23.8019 40.3262 23.0194 40.3262 22.063V12.1803C40.3262 11.2239 41.1088 10.4414 42.0653 10.4414C43.0218 10.4414 43.8044 11.2239 43.8044 12.1803V22.063C43.8044 23.0339 43.0363 23.8019 42.0653 23.8019Z" fill="#8200FF"/>
    <path d="M43.732 5.35508H43.3117V4.93484C43.3117 4.25378 42.761 3.70312 42.0799 3.70312C41.3987 3.70312 40.848 4.25378 40.848 4.93484V5.35508H40.4277C39.7465 5.35508 39.1958 5.90573 39.1958 6.5868C39.1958 7.26787 39.7465 7.81852 40.4277 7.81852H40.848V8.23875C40.848 8.91982 41.3987 9.47047 42.0799 9.47047C42.761 9.47047 43.3117 8.91982 43.3117 8.23875V7.81852H43.732C44.4132 7.81852 44.9639 7.26787 44.9639 6.5868C44.9639 5.90573 44.4132 5.35508 43.732 5.35508Z" fill="#FF59F1"/>
    <path d="M80.3552 23.7882C79.3986 23.7737 78.645 22.9188 78.645 21.9189V4.61685C78.645 2.73305 79.6305 1.226 81.1668 0.762295C82.7754 0.284098 84.5146 1.08109 85.5001 2.74754L95.732 19.8032L95.7465 19.8177C95.9494 20.1655 96.1812 20.1365 96.3117 20.1075C96.4131 20.0786 96.4421 19.9916 96.4566 19.8177V2.50119C96.4566 1.50133 97.2102 0.646368 98.1668 0.631877C99.1378 0.617387 99.9349 1.42887 99.9349 2.44323V19.8177C99.9349 21.687 98.9059 23.2086 97.2972 23.6868C95.616 24.1795 93.7755 23.3825 92.8044 21.745L82.5581 4.68931L82.5436 4.67482C82.5436 4.67482 82.5436 4.67482 82.5436 4.66032C82.4276 4.45745 82.1378 4.55889 82.1233 4.79074C82.1233 4.83421 82.1233 4.89218 82.1233 4.92116V21.9913C82.1233 22.9912 81.3262 23.8027 80.3552 23.7882Z" fill="#8200FF"/>
  </g>
  <defs>
    <clipPath id="clip0_1384_28426">
      <rect width="100" height="24.3446" fill="white" transform="translate(0.5 0.0507812)"/>
    </clipPath>
  </defs>
</svg>