<svg width="33" height="32" viewBox="0 0 33 32" fill="none" xmlns="http://www.w3.org/2000/svg">
<path d="M8.8947 31.9932C8.19096 31.9932 7.47121 31.7693 6.86343 31.3534C5.72783 30.5535 5.16803 29.2098 5.39195 27.8501L6.47956 21.1475C6.52755 20.8436 6.43158 20.5237 6.22366 20.2997L1.50533 15.4367C0.577662 14.4769 0.257775 13.0852 0.689622 11.8055C1.12147 10.5418 2.19309 9.61397 3.52062 9.42201L9.83837 8.44622C10.1583 8.39823 10.4302 8.19027 10.5741 7.90233L13.2931 2.06356C13.8849 0.799831 15.1165 0 16.508 0C17.8995 0 19.1311 0.783834 19.7229 2.06356L22.4419 7.90233C22.5858 8.19027 22.8577 8.39823 23.1616 8.44622L29.4794 9.42201C30.7909 9.62997 31.8785 10.5418 32.3104 11.8055C32.7422 13.0852 32.4223 14.4769 31.4947 15.4367L26.7763 20.2997C26.5684 20.5237 26.4565 20.8436 26.5204 21.1475L27.608 27.8501C27.832 29.2098 27.2722 30.5535 26.1366 31.3534C25.017 32.1372 23.5775 32.2172 22.3779 31.5453L16.9718 28.538C16.6839 28.378 16.3321 28.378 16.0442 28.538L10.6381 31.5453C10.0943 31.8493 9.50249 31.9932 8.9107 31.9932H8.8947ZM16.492 1.67965C15.7563 1.67965 15.1165 2.07956 14.7966 2.76742L12.0776 8.60618C11.6937 9.40601 10.958 9.98189 10.0783 10.1099L3.76053 11.0857C3.05678 11.1976 2.49698 11.6615 2.27306 12.3494C2.04914 13.0372 2.20908 13.7571 2.70491 14.269L7.42323 19.132C7.99902 19.7238 8.27093 20.5877 8.14297 21.4195L7.05536 28.1221C6.9434 28.8579 7.2313 29.5458 7.83908 29.9777C8.43087 30.3936 9.16661 30.4256 9.80638 30.0736L15.2125 27.0663C16.0122 26.6184 16.9718 26.6184 17.7875 27.0663L23.1936 30.0736C23.8334 30.4256 24.5691 30.3936 25.1609 29.9777C25.7687 29.5458 26.0566 28.8579 25.9446 28.1221L24.857 21.4035C24.7291 20.5717 24.985 19.7238 25.5768 19.116L30.2951 14.253C30.7909 13.7411 30.9509 13.0212 30.7269 12.3334C30.503 11.6615 29.9432 11.1816 29.2395 11.0697L22.9217 10.0939C22.042 9.96589 21.3063 9.40601 20.9224 8.59019L18.2034 2.75142C17.8835 2.07956 17.2597 1.66365 16.508 1.66365L16.492 1.67965Z" fill="#FF96DB"/>
</svg>
