<svg width="32" height="32" viewBox="0 0 32 32" fill="none" xmlns="http://www.w3.org/2000/svg">
<rect width="32" height="32" rx="16" fill="#F9F3FF"/>
<mask id="mask0_1817_37119" style="mask-type:alpha" maskUnits="userSpaceOnUse" x="0" y="0" width="32" height="32">
<rect width="32" height="32" fill="#D9D9D9"/>
</mask>
<g mask="url(#mask0_1817_37119)">
<path d="M16 16C14.5334 16 13.2778 15.4778 12.2334 14.4334C11.1889 13.3889 10.6667 12.1334 10.6667 10.6667C10.6667 9.20004 11.1889 7.94449 12.2334 6.90004C13.2778 5.8556 14.5334 5.33337 16 5.33337C17.4667 5.33337 18.7223 5.8556 19.7667 6.90004C20.8112 7.94449 21.3334 9.20004 21.3334 10.6667C21.3334 12.1334 20.8112 13.3889 19.7667 14.4334C18.7223 15.4778 17.4667 16 16 16ZM8.00004 26.6667C7.26671 26.6667 6.63893 26.4056 6.11671 25.8834C5.59449 25.3612 5.33337 24.7334 5.33337 24V22.9334C5.33337 22.1778 5.52782 21.4834 5.91671 20.85C6.3056 20.2167 6.82226 19.7334 7.46671 19.4C8.84449 18.7112 10.2445 18.1945 11.6667 17.85C13.0889 17.5056 14.5334 17.3334 16 17.3334C17.4667 17.3334 18.9112 17.5056 20.3334 17.85C21.7556 18.1945 23.1556 18.7112 24.5334 19.4C25.1778 19.7334 25.6945 20.2167 26.0834 20.85C26.4723 21.4834 26.6667 22.1778 26.6667 22.9334V24C26.6667 24.7334 26.4056 25.3612 25.8834 25.8834C25.3612 26.4056 24.7334 26.6667 24 26.6667H8.00004Z" fill="#C88FFF"/>
</g>
</svg>
