<svg width="63" height="108" viewBox="0 0 63 108" fill="none" xmlns="http://www.w3.org/2000/svg">
<path d="M23.6376 73.9617C23.6376 66.3811 24.3161 60.9296 25.6731 57.6072C27.0301 54.2849 29.9079 50.6583 34.3066 46.7276C38.1437 43.3585 41.0683 40.4338 43.0804 37.9538C45.0926 35.4737 46.0987 32.6426 46.0987 29.4607C46.0987 25.6236 44.8118 22.4416 42.2382 19.9147C39.6645 17.3878 36.0848 16.1244 31.4989 16.1244C26.726 16.1244 23.0994 17.575 20.6193 20.4762C18.1393 23.3774 16.3845 26.3255 15.355 29.3203L0.895691 23.1435C2.86104 17.1538 6.46417 11.9597 11.7051 7.56108C16.946 3.16245 23.544 0.963135 31.4989 0.963135C41.3257 0.963135 48.8829 3.70058 54.1706 9.17547C59.4583 14.6504 62.1022 21.2249 62.1022 28.8991C62.1022 33.5785 61.0961 37.5794 59.084 40.9018C57.0718 44.2241 53.9132 47.9911 49.6082 52.2025C45.0224 56.6012 42.2382 59.9469 41.2555 62.2398C40.2728 64.5327 39.7815 68.44 39.7815 73.9617H23.6376ZM31.4989 107.653C28.4105 107.653 25.7667 106.554 23.5674 104.354C21.368 102.155 20.2684 99.5112 20.2684 96.4228C20.2684 93.3344 21.368 90.6906 23.5674 88.4912C25.7667 86.2919 28.4105 85.1923 31.4989 85.1923C34.5873 85.1923 37.2312 86.2919 39.4305 88.4912C41.6298 90.6906 42.7295 93.3344 42.7295 96.4228C42.7295 99.5112 41.6298 102.155 39.4305 104.354C37.2312 106.554 34.5873 107.653 31.4989 107.653Z" fill="#1C1B1F"/>
</svg>
