<svg width="16" height="17" viewBox="0 0 16 17" fill="none" xmlns="http://www.w3.org/2000/svg">
    <path d="M4.65283 13.5216C5.92343 14.3327 7.28344 14.6326 8.73288 14.4213C10.1823 14.2101 11.3743 13.5422 12.3088 12.4175C12.8109 11.8133 13.1688 11.1321 13.3827 10.3741C13.5966 9.61599 13.6559 8.84319 13.5607 8.05563L12.3769 8.14627C12.4768 8.79219 12.4397 9.41471 12.2655 10.0138C12.0914 10.6129 11.7991 11.1594 11.3889 11.6532C10.6646 12.5249 9.73904 13.0545 8.61227 13.2421C7.48549 13.4297 6.41259 13.2257 5.39357 12.6302L4.65283 13.5216ZM3.41675 12.5139L4.1575 11.6224C3.41652 10.7131 3.02965 9.68865 2.99687 8.54918C2.9641 7.40972 3.30828 6.40605 4.02942 5.53816C4.85249 4.54759 5.90985 4.00285 7.2015 3.90397C8.49315 3.80508 9.65005 4.18029 10.6722 5.02959L10.8892 5.20992L9.39457 5.32435L9.52045 6.4877L13.0121 6.22037L12.6354 2.73878L11.4687 2.8281L11.63 4.31842L11.4129 4.13809C10.1298 3.07189 8.68338 2.60041 7.07379 2.72365C5.46419 2.84687 4.14276 3.53025 3.1095 4.7738C2.18007 5.89237 1.74684 7.18238 1.80979 8.64382C1.87276 10.1052 2.40841 11.3953 3.41675 12.5139Z" fill="#999999"/>
    </svg>
    