<svg width="21" height="21" viewBox="0 0 21 21" fill="none" xmlns="http://www.w3.org/2000/svg">
    <path d="M4.41936 12.4053H6.43147L12.5205 6.36888C12.619 6.27037 12.6683 6.15566 12.6683 6.02475C12.6683 5.89385 12.619 5.77914 12.5205 5.68061L11.144 4.30414C11.0455 4.20563 10.9308 4.15637 10.7999 4.15637C10.669 4.15637 10.5543 4.20563 10.4558 4.30414L4.41936 10.3932V12.4053ZM9.11571 12.4053H16.3222V10.8264H10.6946L9.11571 12.4053ZM0.269531 20.0774V2.46608C0.269531 1.93436 0.453742 1.48429 0.822164 1.11587C1.19059 0.747443 1.64066 0.563232 2.17238 0.563232H18.3667C18.8984 0.563232 19.3485 0.747443 19.7169 1.11587C20.0853 1.48429 20.2695 1.93436 20.2695 2.46608V14.4498C20.2695 14.9816 20.0853 15.4316 19.7169 15.8001C19.3485 16.1685 18.8984 16.3527 18.3667 16.3527H3.99423L0.269531 20.0774ZM3.32217 14.7738H18.3667C18.4477 14.7738 18.5219 14.74 18.5894 14.6726C18.6569 14.6051 18.6906 14.5308 18.6906 14.4498V2.46608C18.6906 2.3851 18.6569 2.31086 18.5894 2.24337C18.5219 2.1759 18.4477 2.14216 18.3667 2.14216H2.17238C2.0914 2.14216 2.01716 2.1759 1.94967 2.24337C1.88219 2.31086 1.84846 2.3851 1.84846 2.46608V16.2313L3.32217 14.7738Z" fill="white"/>
    </svg>
    