<svg width="37" height="36" viewBox="0 0 37 36" fill="none" xmlns="http://www.w3.org/2000/svg">
<mask id="mask0_404_16042" style="mask-type:alpha" maskUnits="userSpaceOnUse" x="0" y="0" width="37" height="36">
<rect x="0.5" width="36" height="36" fill="#D9D9D9"/>
</mask>
<g mask="url(#mask0_404_16042)">
<path d="M27.5 33C26.25 33 25.1875 32.5625 24.3125 31.6875C23.4375 30.8125 23 29.75 23 28.5C23 28.325 23.0125 28.1438 23.0375 27.9563C23.0625 27.7688 23.1 27.6 23.15 27.45L12.575 21.3C12.15 21.675 11.675 21.9688 11.15 22.1813C10.625 22.3938 10.075 22.5 9.5 22.5C8.25 22.5 7.1875 22.0625 6.3125 21.1875C5.4375 20.3125 5 19.25 5 18C5 16.75 5.4375 15.6875 6.3125 14.8125C7.1875 13.9375 8.25 13.5 9.5 13.5C10.075 13.5 10.625 13.6062 11.15 13.8188C11.675 14.0312 12.15 14.325 12.575 14.7L23.15 8.55C23.1 8.4 23.0625 8.23125 23.0375 8.04375C23.0125 7.85625 23 7.675 23 7.5C23 6.25 23.4375 5.1875 24.3125 4.3125C25.1875 3.4375 26.25 3 27.5 3C28.75 3 29.8125 3.4375 30.6875 4.3125C31.5625 5.1875 32 6.25 32 7.5C32 8.75 31.5625 9.8125 30.6875 10.6875C29.8125 11.5625 28.75 12 27.5 12C26.925 12 26.375 11.8938 25.85 11.6812C25.325 11.4688 24.85 11.175 24.425 10.8L13.85 16.95C13.9 17.1 13.9375 17.2687 13.9625 17.4562C13.9875 17.6437 14 17.825 14 18C14 18.175 13.9875 18.3563 13.9625 18.5438C13.9375 18.7313 13.9 18.9 13.85 19.05L24.425 25.2C24.85 24.825 25.325 24.5312 25.85 24.3188C26.375 24.1063 26.925 24 27.5 24C28.75 24 29.8125 24.4375 30.6875 25.3125C31.5625 26.1875 32 27.25 32 28.5C32 29.75 31.5625 30.8125 30.6875 31.6875C29.8125 32.5625 28.75 33 27.5 33ZM27.5 9C27.925 9 28.2812 8.85625 28.5688 8.56875C28.8563 8.28125 29 7.925 29 7.5C29 7.075 28.8563 6.71875 28.5688 6.43125C28.2812 6.14375 27.925 6 27.5 6C27.075 6 26.7188 6.14375 26.4313 6.43125C26.1438 6.71875 26 7.075 26 7.5C26 7.925 26.1438 8.28125 26.4313 8.56875C26.7188 8.85625 27.075 9 27.5 9ZM9.5 19.5C9.925 19.5 10.2812 19.3563 10.5688 19.0688C10.8563 18.7813 11 18.425 11 18C11 17.575 10.8563 17.2188 10.5688 16.9313C10.2812 16.6438 9.925 16.5 9.5 16.5C9.075 16.5 8.71875 16.6438 8.43125 16.9313C8.14375 17.2188 8 17.575 8 18C8 18.425 8.14375 18.7813 8.43125 19.0688C8.71875 19.3563 9.075 19.5 9.5 19.5ZM27.5 30C27.925 30 28.2812 29.8562 28.5688 29.5687C28.8563 29.2812 29 28.925 29 28.5C29 28.075 28.8563 27.7188 28.5688 27.4313C28.2812 27.1438 27.925 27 27.5 27C27.075 27 26.7188 27.1438 26.4313 27.4313C26.1438 27.7188 26 28.075 26 28.5C26 28.925 26.1438 29.2812 26.4313 29.5687C26.7188 29.8562 27.075 30 27.5 30Z" fill="white"/>
</g>
</svg>
