<svg width="51" height="52" viewBox="0 0 51 52" fill="none" xmlns="http://www.w3.org/2000/svg">
    <path d="M22.9105 36.0765H27.9105V25.5313L31.9105 29.5485L35.4105 26.0334L25.4105 15.9904L15.4105 26.0334L18.9105 29.5485L22.9105 25.5313V36.0765ZM25.4105 51.1411C21.9522 51.1411 18.7022 50.482 15.6605 49.1639C12.6189 47.8457 9.97302 46.0568 7.72302 43.7971C5.47302 41.5374 3.69177 38.8802 2.37927 35.8254C1.06677 32.7707 0.410522 29.5067 0.410522 26.0334C0.410522 22.5602 1.06677 19.2962 2.37927 16.2414C3.69177 13.1867 5.47302 10.5295 7.72302 8.26977C9.97302 6.01008 12.6189 4.22116 15.6605 2.90301C18.7022 1.58486 21.9522 0.925781 25.4105 0.925781C28.8689 0.925781 32.1189 1.58486 35.1605 2.90301C38.2022 4.22116 40.848 6.01008 43.098 8.26977C45.348 10.5295 47.1293 13.1867 48.4418 16.2414C49.7543 19.2962 50.4105 22.5602 50.4105 26.0334C50.4105 29.5067 49.7543 32.7707 48.4418 35.8254C47.1293 38.8802 45.348 41.5374 43.098 43.7971C40.848 46.0568 38.2022 47.8457 35.1605 49.1639C32.1189 50.482 28.8689 51.1411 25.4105 51.1411Z" fill="#696969"/>
    </svg>
    