<svg width="105" height="59" viewBox="0 0 105 59" fill="none" xmlns="http://www.w3.org/2000/svg">
<path d="M13.7623 1.56799L27.5468 44.7448H28.0717L41.8838 1.56799H54.9225L35.3645 58.1426H20.254L0.69596 1.56799H13.7623ZM91.9576 17.7558C91.8103 16.2641 91.3315 14.9842 90.5212 13.9161C89.7108 12.8479 88.5967 12.0376 87.1786 11.4851C85.7606 10.9142 84.1031 10.6288 82.2062 10.6288C80.2725 10.6288 78.6059 10.905 77.2062 11.4575C75.825 12.01 74.7661 12.7835 74.0294 13.7779C73.3112 14.754 72.9521 15.859 72.9521 17.0929C72.9153 19.0081 73.6979 20.5091 75.3002 21.5956C76.9208 22.6638 79.1491 23.5293 81.9852 24.1923L87.0957 25.4354C90.558 26.2273 93.523 27.3231 95.9908 28.7227C98.477 30.1039 100.429 31.8995 101.847 34.1094C103.284 36.3194 104.011 38.9529 104.029 42.01C104.011 45.4538 103.127 48.4464 101.378 50.9879C99.6464 53.5293 97.1418 55.4906 93.8637 56.8719C90.5856 58.2531 86.6722 58.9437 82.1234 58.9437C77.5377 58.9437 73.5598 58.2439 70.1897 56.8442C66.8195 55.4446 64.2044 53.3636 62.3444 50.6011C60.5027 47.8387 59.5267 44.4778 59.4162 40.5183H70.825C70.9355 42.3599 71.4696 43.9253 72.4272 45.2144C73.4033 46.5035 74.7108 47.4704 76.3499 48.115C77.9889 48.7411 79.8674 49.0542 81.9852 49.0542C84.011 49.0542 85.7882 48.7595 87.3167 48.1702C88.8637 47.5625 90.0515 46.7245 90.8803 45.6564C91.7274 44.5882 92.151 43.3544 92.151 41.9547C92.151 40.7024 91.7827 39.6435 91.046 38.7779C90.3278 37.894 89.2688 37.1481 87.8692 36.5404C86.488 35.9326 84.6924 35.3525 82.4825 34.8L76.2946 33.2807C71.3223 32.0652 67.5101 30.2052 64.8582 27.7006C62.2062 25.1776 60.8895 21.8995 60.9079 17.8663C60.8895 14.5146 61.7919 11.5496 63.6151 8.97131C65.4567 6.37462 67.9981 4.36725 71.2394 2.94921C74.4991 1.51274 78.1823 0.794508 82.2891 0.794508C86.4143 0.794508 90.0515 1.51274 93.2007 2.94921C96.3499 4.38567 98.7992 6.38383 100.549 8.94368C102.298 11.5035 103.201 14.4409 103.256 17.7558H91.9576Z" fill="black"/>
</svg>
