<svg class="not-found-img" viewBox="0 0 541 105" fill="none" xmlns="http://www.w3.org/2000/svg" >
    <path d="M34.7107 65.0792H8.22268C6.93201 65.0792 5.90534 64.7858 5.14268 64.1992C4.43868 63.5538 3.94001 62.7912 3.64668 61.9112C3.41201 60.9725 3.35334 59.9752 3.47068 58.9192C3.64668 57.8632 3.96934 56.9245 4.43868 56.1032L28.5507 14.0392C29.6653 12.1618 31.0733 11.0472 32.7747 10.6952C34.5347 10.3432 36.2653 10.5778 37.9667 11.3992C40.0787 12.3965 41.3107 13.8045 41.6627 15.6232C42.0733 17.3832 41.7213 19.2018 40.6067 21.0792L21.1587 54.1672H34.7107V40.7032C34.7107 38.8258 35.268 37.1538 36.3827 35.6872C37.556 34.2205 39.5507 33.4872 42.3667 33.4872C45.124 33.4872 47.0893 34.2205 48.2627 35.6872C49.436 37.0952 50.0227 38.7672 50.0227 40.7032V54.1672H54.2467C55.5373 54.1672 56.5933 54.3138 57.4147 54.6072C58.236 54.9005 58.8813 55.3112 59.3507 55.8392C59.82 56.3085 60.1133 56.8658 60.2307 57.5112C60.4067 58.1565 60.4947 58.8312 60.4947 59.5352C60.4947 61.0605 60.084 62.3805 59.2627 63.4952C58.4413 64.5512 56.7693 65.0792 54.2467 65.0792H50.0227V71.0632C50.0227 71.7672 49.9053 72.5005 49.6707 73.2632C49.4947 74.0258 49.1133 74.7298 48.5267 75.3752C47.94 76.0792 47.148 76.6365 46.1507 77.0472C45.212 77.5165 43.9507 77.7512 42.3667 77.7512C40.7827 77.7512 39.492 77.5165 38.4947 77.0472C37.556 76.6365 36.7933 76.0792 36.2067 75.3752C35.62 74.7298 35.2093 74.0258 34.9747 73.2632C34.7987 72.5005 34.7107 71.7672 34.7107 71.0632V65.0792Z" fill="black"/>
    <path d="M95.1646 83.501C94.2282 83.501 93.2918 83.2929 92.4074 82.8248C90.4826 81.7844 89.286 79.8078 89.286 77.6752V71.1211C82.7831 69.1445 76.9045 65.3473 72.4305 60.0937C66.812 53.5917 63.7427 45.2171 63.7427 36.5824C63.7427 16.7122 79.8698 0.535156 99.7427 0.535156C119.616 0.535156 135.743 16.7642 135.743 36.6344C135.743 47.9739 130.592 58.4292 121.592 65.2953C114.153 72.0054 99.0664 82.0965 98.4421 82.5126C97.4537 83.1889 96.3091 83.501 95.1646 83.501ZM99.7427 12.2908C86.3727 12.2908 75.4999 23.2142 75.4999 36.5824C75.4999 48.5981 84.0837 58.6892 95.893 60.6138H96.049C98.9103 61.03 101.043 63.5267 101.043 66.3876C105.517 63.1626 110.668 59.3134 113.893 56.4005C114.049 56.2965 114.153 56.1405 114.309 56.0364C120.5 51.407 124.037 44.2808 124.037 36.5824C124.037 23.2142 113.113 12.2908 99.7427 12.2908Z" fill="#FF535D"/>
    <path d="M100.81 30.1986L99.7431 31.2654L98.6765 30.1987C96.9478 28.47 94.1522 28.4702 92.4233 30.1991C90.6944 31.9281 90.6942 34.7236 92.4229 36.4523L93.4895 37.519L92.4227 38.5858C90.6938 40.3147 90.6936 43.1102 92.4223 44.8389C94.151 46.5677 96.9466 46.5675 98.6755 44.8385L99.7423 43.7717L100.809 44.8384C102.538 46.5671 105.333 46.5669 107.062 44.838C108.791 43.109 108.791 40.3135 107.063 38.5848L105.996 37.5181L107.063 36.4513C108.792 34.7224 108.792 31.9269 107.063 30.1982C105.334 28.4695 102.539 28.4696 100.81 30.1986Z" fill="#FF535D"/>
    <path d="M173.711 65.0792H147.223C145.932 65.0792 144.905 64.7858 144.143 64.1992C143.439 63.5538 142.94 62.7912 142.647 61.9112C142.412 60.9725 142.353 59.9752 142.471 58.9192C142.647 57.8632 142.969 56.9245 143.439 56.1032L167.551 14.0392C168.665 12.1618 170.073 11.0472 171.775 10.6952C173.535 10.3432 175.265 10.5778 176.967 11.3992C179.079 12.3965 180.311 13.8045 180.663 15.6232C181.073 17.3832 180.721 19.2018 179.607 21.0792L160.159 54.1672H173.711V40.7032C173.711 38.8258 174.268 37.1538 175.383 35.6872C176.556 34.2205 178.551 33.4872 181.367 33.4872C184.124 33.4872 186.089 34.2205 187.263 35.6872C188.436 37.0952 189.023 38.7672 189.023 40.7032V54.1672H193.247C194.537 54.1672 195.593 54.3138 196.415 54.6072C197.236 54.9005 197.881 55.3112 198.351 55.8392C198.82 56.3085 199.113 56.8658 199.231 57.5112C199.407 58.1565 199.495 58.8312 199.495 59.5352C199.495 61.0605 199.084 62.3805 198.263 63.4952C197.441 64.5512 195.769 65.0792 193.247 65.0792H189.023V71.0632C189.023 71.7672 188.905 72.5005 188.671 73.2632C188.495 74.0258 188.113 74.7298 187.527 75.3752C186.94 76.0792 186.148 76.6365 185.151 77.0472C184.212 77.5165 182.951 77.7512 181.367 77.7512C179.783 77.7512 178.492 77.5165 177.495 77.0472C176.556 76.6365 175.793 76.0792 175.207 75.3752C174.62 74.7298 174.209 74.0258 173.975 73.2632C173.799 72.5005 173.711 71.7672 173.711 71.0632V65.0792Z" fill="black"/>
    <path d="M264.655 66.7512H288.063C290.292 66.7512 291.993 67.3085 293.167 68.4232C294.399 69.5378 295.015 70.8578 295.015 72.3832C295.015 72.9698 294.868 73.5565 294.575 74.1432C294.34 74.7885 293.929 75.3752 293.343 75.9032C292.756 76.4312 292.023 76.8712 291.143 77.2232C290.321 77.5752 289.295 77.7512 288.063 77.7512H255.943C253.889 77.7512 252.276 77.2232 251.103 76.1672C249.988 75.1112 249.431 73.6152 249.431 71.6792V16.5912C249.431 14.9485 250.047 13.6285 251.279 12.6312C252.569 11.5752 254.153 11.0472 256.031 11.0472H288.239C290.468 11.0472 292.14 11.6045 293.255 12.7192C294.428 13.7752 295.015 15.0658 295.015 16.5912C295.015 17.8232 294.487 19.0258 293.431 20.1992C292.375 21.3138 290.644 21.8712 288.239 21.8712H264.655V38.9432H285.247C287.476 38.9432 289.119 39.4712 290.175 40.5272C291.231 41.5832 291.759 42.8738 291.759 44.3992C291.759 45.6312 291.26 46.8338 290.263 48.0072C289.324 49.1218 287.652 49.6792 285.247 49.6792H264.655V66.7512ZM319.481 50.1192V70.9752C319.481 72.1485 319.246 73.1458 318.777 73.9672C318.307 74.8472 317.721 75.5512 317.017 76.0792C316.313 76.6658 315.521 77.0765 314.641 77.3112C313.761 77.6045 312.881 77.7512 312.001 77.7512C311.121 77.7512 310.211 77.6045 309.273 77.3112C308.393 77.0765 307.571 76.6658 306.809 76.0792C306.105 75.5512 305.518 74.8472 305.049 73.9672C304.579 73.1458 304.345 72.1485 304.345 70.9752V16.0632C304.345 14.3618 304.814 13.1005 305.753 12.2792C306.75 11.4578 308.011 11.0472 309.537 11.0472H329.249C332.651 11.0472 335.878 11.3405 338.929 11.9272C342.038 12.5138 344.766 13.5405 347.113 15.0072C349.459 16.4738 351.307 18.4098 352.657 20.8152C354.065 23.2205 354.769 26.2712 354.769 29.9672C354.769 32.4312 354.417 34.6605 353.713 36.6552C353.009 38.6498 352.041 40.4098 350.809 41.9352C349.577 43.4605 348.139 44.7805 346.497 45.8952C344.854 47.0098 343.123 47.8605 341.305 48.4472L352.745 67.1912C353.859 68.8925 354.299 70.6525 354.065 72.4712C353.83 74.2898 352.774 75.7272 350.897 76.7832C349.841 77.3698 348.785 77.6925 347.729 77.7512C346.731 77.8685 345.793 77.7805 344.913 77.4872C344.091 77.1938 343.329 76.7538 342.625 76.1672C341.921 75.5805 341.334 74.9058 340.865 74.1432L326.521 50.1192H319.481ZM319.481 21.8712V39.5592H328.897C332.182 39.5592 334.822 38.9138 336.817 37.6232C338.811 36.3325 339.809 34.0445 339.809 30.7592C339.809 27.4152 338.811 25.0978 336.817 23.8072C334.881 22.5165 332.241 21.8712 328.897 21.8712H319.481ZM378.52 50.1192V70.9752C378.52 72.1485 378.285 73.1458 377.816 73.9672C377.346 74.8472 376.76 75.5512 376.056 76.0792C375.352 76.6658 374.56 77.0765 373.68 77.3112C372.8 77.6045 371.92 77.7512 371.04 77.7512C370.16 77.7512 369.25 77.6045 368.312 77.3112C367.432 77.0765 366.61 76.6658 365.848 76.0792C365.144 75.5512 364.557 74.8472 364.088 73.9672C363.618 73.1458 363.384 72.1485 363.384 70.9752V16.0632C363.384 14.3618 363.853 13.1005 364.792 12.2792C365.789 11.4578 367.05 11.0472 368.576 11.0472H388.288C391.69 11.0472 394.917 11.3405 397.968 11.9272C401.077 12.5138 403.805 13.5405 406.152 15.0072C408.498 16.4738 410.346 18.4098 411.696 20.8152C413.104 23.2205 413.808 26.2712 413.808 29.9672C413.808 32.4312 413.456 34.6605 412.752 36.6552C412.048 38.6498 411.08 40.4098 409.848 41.9352C408.616 43.4605 407.178 44.7805 405.536 45.8952C403.893 47.0098 402.162 47.8605 400.344 48.4472L411.784 67.1912C412.898 68.8925 413.338 70.6525 413.104 72.4712C412.869 74.2898 411.813 75.7272 409.936 76.7832C408.88 77.3698 407.824 77.6925 406.768 77.7512C405.77 77.8685 404.832 77.7805 403.952 77.4872C403.13 77.1938 402.368 76.7538 401.664 76.1672C400.96 75.5805 400.373 74.9058 399.904 74.1432L385.56 50.1192H378.52ZM378.52 21.8712V39.5592H387.936C391.221 39.5592 393.861 38.9138 395.856 37.6232C397.85 36.3325 398.848 34.0445 398.848 30.7592C398.848 27.4152 397.85 25.0978 395.856 23.8072C393.92 22.5165 391.28 21.8712 387.936 21.8712H378.52ZM448.559 78.1912C444.687 78.1912 441.108 77.8098 437.823 77.0472C434.596 76.3432 431.78 75.1405 429.375 73.4392C427.028 71.7965 425.18 69.6552 423.831 67.0152C422.482 64.3752 421.778 61.1485 421.719 57.3352C421.602 53.1112 421.543 48.9165 421.543 44.7512C421.543 40.5272 421.602 36.2152 421.719 31.8152C421.778 28.0605 422.482 24.8632 423.831 22.2232C425.239 19.5832 427.116 17.4418 429.463 15.7992C431.868 14.0978 434.684 12.8952 437.911 12.1912C441.196 11.4285 444.746 11.0472 448.559 11.0472C452.255 11.0472 455.687 11.4578 458.855 12.2792C462.023 13.0418 464.78 14.2738 467.127 15.9752C469.532 17.6178 471.439 19.7592 472.847 22.3992C474.314 24.9805 475.135 28.1192 475.311 31.8152C475.487 36.0392 475.546 40.3512 475.487 44.7512C475.487 49.1512 475.428 53.3458 475.311 57.3352C475.252 61.0312 474.519 64.1992 473.111 66.8392C471.703 69.4792 469.796 71.6205 467.391 73.2632C464.986 74.9645 462.17 76.1965 458.943 76.9592C455.716 77.7805 452.255 78.1912 448.559 78.1912ZM460.703 31.8152C460.586 28.4125 459.442 25.9192 457.271 24.3352C455.1 22.6925 452.196 21.8712 448.559 21.8712C444.746 21.8712 441.783 22.6925 439.671 24.3352C437.618 25.9778 436.532 28.5005 436.415 31.9032C436.239 40.4098 436.239 48.8872 436.415 57.3352C436.532 60.7965 437.618 63.3192 439.671 64.9032C441.783 66.4872 444.746 67.2792 448.559 67.2792C452.138 67.2792 454.983 66.4578 457.095 64.8152C459.266 63.1138 460.468 60.5912 460.703 57.2472C460.996 53.0818 461.084 48.9165 460.967 44.7512C460.908 40.5858 460.82 36.2738 460.703 31.8152ZM503.129 50.1192V70.9752C503.129 72.1485 502.895 73.1458 502.425 73.9672C501.956 74.8472 501.369 75.5512 500.665 76.0792C499.961 76.6658 499.169 77.0765 498.289 77.3112C497.409 77.6045 496.529 77.7512 495.649 77.7512C494.769 77.7512 493.86 77.6045 492.921 77.3112C492.041 77.0765 491.22 76.6658 490.457 76.0792C489.753 75.5512 489.167 74.8472 488.697 73.9672C488.228 73.1458 487.993 72.1485 487.993 70.9752V16.0632C487.993 14.3618 488.463 13.1005 489.401 12.2792C490.399 11.4578 491.66 11.0472 493.185 11.0472H512.897C516.3 11.0472 519.527 11.3405 522.577 11.9272C525.687 12.5138 528.415 13.5405 530.761 15.0072C533.108 16.4738 534.956 18.4098 536.305 20.8152C537.713 23.2205 538.417 26.2712 538.417 29.9672C538.417 32.4312 538.065 34.6605 537.361 36.6552C536.657 38.6498 535.689 40.4098 534.457 41.9352C533.225 43.4605 531.788 44.7805 530.145 45.8952C528.503 47.0098 526.772 47.8605 524.953 48.4472L536.393 67.1912C537.508 68.8925 537.948 70.6525 537.713 72.4712C537.479 74.2898 536.423 75.7272 534.545 76.7832C533.489 77.3698 532.433 77.6925 531.377 77.7512C530.38 77.8685 529.441 77.7805 528.561 77.4872C527.74 77.1938 526.977 76.7538 526.273 76.1672C525.569 75.5805 524.983 74.9058 524.513 74.1432L510.169 50.1192H503.129ZM503.129 21.8712V39.5592H512.545C515.831 39.5592 518.471 38.9138 520.465 37.6232C522.46 36.3325 523.457 34.0445 523.457 30.7592C523.457 27.4152 522.46 25.0978 520.465 23.8072C518.529 22.5165 515.889 21.8712 512.545 21.8712H503.129Z" fill="black"/>
</svg>
    