<svg xmlns="http://www.w3.org/2000/svg" width="25" height="24" viewBox="0 0 25 24" fill="none">
  <mask id="mask0_286_78" style="mask-type:alpha" maskUnits="userSpaceOnUse" x="0" y="0" width="25" height="24">
    <rect x="0.5" width="24" height="24" fill="#D9D9D9"/>
  </mask>
  <g mask="url(#mask0_286_78)">
    <path d="M6.69615 17.4846C7.54615 16.8731 8.44808 16.3894 9.40193 16.0337C10.3558 15.6779 11.3885 15.5 12.5 15.5C13.6115 15.5 14.6442 15.6779 15.5981 16.0337C16.5519 16.3894 17.4538 16.8731 18.3039 17.4846C18.9641 16.8013 19.4952 15.9942 19.8971 15.0635C20.299 14.1327 20.5 13.1115 20.5 12C20.5 9.78333 19.7208 7.89583 18.1625 6.3375C16.6042 4.77917 14.7167 4 12.5 4C10.2833 4 8.39583 4.77917 6.8375 6.3375C5.27917 7.89583 4.5 9.78333 4.5 12C4.5 13.1115 4.70096 14.1327 5.10288 15.0635C5.50481 15.9942 6.0359 16.8013 6.69615 17.4846ZM12.5006 12.5C11.6579 12.5 10.9471 12.2108 10.3683 11.6323C9.78942 11.0539 9.5 10.3433 9.5 9.50058C9.5 8.65788 9.78923 7.94711 10.3677 7.36827C10.9461 6.78942 11.6567 6.5 12.4994 6.5C13.3421 6.5 14.0529 6.78923 14.6317 7.3677C15.2106 7.94615 15.5 8.65672 15.5 9.49942C15.5 10.3421 15.2108 11.0529 14.6323 11.6317C14.0539 12.2106 13.3433 12.5 12.5006 12.5ZM12.5 21C11.2449 21 10.0699 20.7663 8.975 20.299C7.88013 19.8317 6.92757 19.1929 6.1173 18.3827C5.30705 17.5724 4.66827 16.6199 4.20095 15.525C3.73365 14.4301 3.5 13.2551 3.5 12C3.5 10.7449 3.73365 9.56987 4.20095 8.475C4.66827 7.38013 5.30705 6.42757 6.1173 5.6173C6.92757 4.80705 7.88013 4.16827 8.975 3.70095C10.0699 3.23365 11.2449 3 12.5 3C13.7551 3 14.9301 3.23365 16.025 3.70095C17.1199 4.16827 18.0724 4.80705 18.8827 5.6173C19.6929 6.42757 20.3317 7.38013 20.799 8.475C21.2663 9.56987 21.5 10.7449 21.5 12C21.5 13.2551 21.2663 14.4301 20.799 15.525C20.3317 16.6199 19.6929 17.5724 18.8827 18.3827C18.0724 19.1929 17.1199 19.8317 16.025 20.299C14.9301 20.7663 13.7551 21 12.5 21ZM12.5 20C13.4218 20 14.3289 19.8388 15.2212 19.5163C16.1135 19.1939 16.8846 18.7526 17.5346 18.1923C16.8846 17.6705 16.1327 17.258 15.2788 16.9548C14.425 16.6516 13.4987 16.5 12.5 16.5C11.5013 16.5 10.5718 16.6484 9.71155 16.9452C8.85128 17.242 8.10256 17.6577 7.46537 18.1923C8.11537 18.7526 8.88653 19.1939 9.77885 19.5163C10.6712 19.8388 11.5782 20 12.5 20ZM12.5 11.5C13.0615 11.5 13.5353 11.307 13.9212 10.9212C14.307 10.5353 14.5 10.0615 14.5 9.5C14.5 8.93847 14.307 8.46475 13.9212 8.07885C13.5353 7.69295 13.0615 7.5 12.5 7.5C11.9385 7.5 11.4647 7.69295 11.0788 8.07885C10.6929 8.46475 10.5 8.93847 10.5 9.5C10.5 10.0615 10.6929 10.5353 11.0788 10.9212C11.4647 11.307 11.9385 11.5 12.5 11.5Z" fill="#1C1B1F"/>
  </g>
</svg>