<svg xmlns="http://www.w3.org/2000/svg" width="25" height="24" viewBox="0 0 25 24" fill="none">
  <mask id="mask0_15_52558" style="mask-type:alpha" maskUnits="userSpaceOnUse" x="0" y="0" width="25" height="24">
    <rect x="0.241699" width="24" height="24" fill="#D9D9D9"/>
  </mask>
  <g mask="url(#mask0_15_52558)">
    <path d="M10.7843 15.7423L17.592 8.9346L16.6972 8.03975L10.7843 13.9526L7.87024 11.0449L6.97539 11.9397L10.7843 15.7423ZM5.30617 20.5C4.87637 20.5 4.50823 20.3467 4.20177 20.0402C3.8953 19.7338 3.74207 19.3656 3.74207 18.9358V5.0641C3.74207 4.6343 3.8953 4.26617 4.20177 3.9597C4.50823 3.65323 4.87637 3.5 5.30617 3.5H19.1779C19.6077 3.5 19.9758 3.65323 20.2823 3.9597C20.5888 4.26617 20.742 4.6343 20.742 5.0641V18.9358C20.742 19.3656 20.5888 19.7338 20.2823 20.0402C19.9758 20.3467 19.6077 20.5 19.1779 20.5H5.30617ZM5.30617 19.2436H19.1779C19.2548 19.2436 19.3254 19.2115 19.3895 19.1474C19.4536 19.0833 19.4856 19.0128 19.4856 18.9358V5.0641C19.4856 4.98717 19.4536 4.91665 19.3895 4.85255C19.3254 4.78843 19.2548 4.75638 19.1779 4.75638H5.30617C5.22923 4.75638 5.15872 4.78843 5.09462 4.85255C5.0305 4.91665 4.99844 4.98717 4.99844 5.0641V18.9358C4.99844 19.0128 5.0305 19.0833 5.09462 19.1474C5.15872 19.2115 5.22923 19.2436 5.30617 19.2436Z" fill="#191919"/>
  </g>
</svg>