<svg width="14" height="15" viewBox="0 0 14 15" fill="none" xmlns="http://www.w3.org/2000/svg">
<path d="M3.00001 8.85742H8.33334V7.52409H3.00001V8.85742ZM3.00001 6.85742H11V5.52409H3.00001V6.85742ZM3.00001 4.85742H11V3.52409H3.00001V4.85742ZM0.333344 14.1908V2.19076C0.333344 1.82409 0.463899 1.5102 0.72501 1.24909C0.986121 0.987977 1.30001 0.857422 1.66668 0.857422H12.3333C12.7 0.857422 13.0139 0.987977 13.275 1.24909C13.5361 1.5102 13.6667 1.82409 13.6667 2.19076V10.1908C13.6667 10.5574 13.5361 10.8713 13.275 11.1324C13.0139 11.3935 12.7 11.5241 12.3333 11.5241H3.00001L0.333344 14.1908ZM2.43334 10.1908H12.3333V2.19076H1.66668V10.9408L2.43334 10.1908Z" fill="#4F4F4F"/>
</svg>
