<svg width="36" height="36" viewBox="0 0 36 36" fill="none" xmlns="http://www.w3.org/2000/svg">
    <mask id="mask0_227_17387" style="mask-type:alpha" maskUnits="userSpaceOnUse" x="0" y="0" width="36" height="36">
    <rect width="36" height="36" fill="#D9D9D9"/>
    </mask>
    <g mask="url(#mask0_227_17387)">
    <path d="M18 32.3136L16.1603 30.6598C13.3975 28.1534 11.1127 25.9996 9.3061 24.1983C7.49949 22.397 6.06788 20.7939 5.01127 19.389C3.95463 17.9841 3.21638 16.7026 2.79652 15.5445C2.37663 14.3864 2.16669 13.2111 2.16669 12.0188C2.16669 9.65348 2.96423 7.67326 4.55931 6.07817C6.1544 4.48309 8.13462 3.68555 10.5 3.68555C11.9551 3.68555 13.3301 4.02584 14.625 4.70642C15.9198 5.38698 17.0448 6.36294 18 7.6343C18.9551 6.36294 20.0801 5.38698 21.375 4.70642C22.6698 4.02584 24.0448 3.68555 25.5 3.68555C27.8653 3.68555 29.8456 4.48309 31.4406 6.07817C33.0357 7.67326 33.8333 9.65348 33.8333 12.0188C33.8333 13.2111 33.6233 14.3864 33.2034 15.5445C32.7836 16.7026 32.0453 17.9841 30.9887 19.389C29.9321 20.7939 28.5031 22.397 26.7019 24.1983C24.9006 25.9996 22.6132 28.1534 19.8397 30.6598L18 32.3136ZM18 28.9355C20.6666 26.5359 22.8611 24.4793 24.5833 22.7656C26.3055 21.052 27.6666 19.5632 28.6666 18.2993C29.6666 17.0354 30.3611 15.9131 30.75 14.9323C31.1389 13.9515 31.3333 12.9804 31.3333 12.0188C31.3333 10.3522 30.7778 8.96328 29.6667 7.85217C28.5555 6.74106 27.1667 6.18551 25.5 6.18551C24.1837 6.18551 22.9674 6.55891 21.8509 7.30572C20.7345 8.05249 19.8504 9.09149 19.1987 10.4227H16.8013C16.1389 9.08083 15.2521 8.03915 14.141 7.29767C13.0299 6.55623 11.8162 6.18551 10.5 6.18551C8.84401 6.18551 7.45779 6.74106 6.34131 7.85217C5.22487 8.96328 4.66665 10.3522 4.66665 12.0188C4.66665 12.9804 4.86109 13.9515 5.24998 14.9323C5.63887 15.9131 6.33331 17.0354 7.33331 18.2993C8.33331 19.5632 9.69442 21.0493 11.4166 22.7576C13.1389 24.466 15.3333 26.5253 18 28.9355Z" fill="black"/>
    <mask id="mask1_227_17387" style="mask-type:alpha" maskUnits="userSpaceOnUse" x="0" y="3" width="37" height="37">
    <rect x="0.000183105" y="3.03418" width="36" height="36" fill="#D9D9D9"/>
    </mask>
    <g mask="url(#mask1_227_17387)">
    <path d="M18 30.8825L16.3443 29.3941C13.8578 27.1383 11.8015 25.1998 10.1755 23.5787C8.54959 21.9575 7.26114 20.5147 6.31019 19.2503C5.35921 17.9859 4.69479 16.8325 4.31691 15.7902C3.93901 14.7479 3.75006 13.6902 3.75006 12.6172C3.75006 10.4883 4.46785 8.70613 5.90342 7.27055C7.339 5.83498 9.1212 5.11719 11.25 5.11719C12.5596 5.11719 13.7971 5.42345 14.9625 6.03598C16.1279 6.64848 17.1404 7.52684 18 8.67106C18.8596 7.52684 19.8722 6.64848 21.0375 6.03598C22.2029 5.42345 23.4404 5.11719 24.75 5.11719C26.8789 5.11719 28.6611 5.83498 30.0966 7.27055C31.5322 8.70613 32.25 10.4883 32.25 12.6172C32.25 13.6902 32.061 14.7479 31.6831 15.7902C31.3053 16.8325 30.6408 17.9859 29.6899 19.2503C28.7389 20.5147 27.4529 21.9575 25.8317 23.5787C24.2106 25.1998 22.1519 27.1383 19.6558 29.3941L18 30.8825Z" fill="black"/>
    </g>
    </g>
    </svg>
    