<svg width="101" height="101" viewBox="0 0 101 101" fill="none" xmlns="http://www.w3.org/2000/svg">
<g id="Group 393">
<path id="Ellipse 51" d="M95.7427 50.1406C98.5041 50.1406 100.769 47.8963 100.493 45.1486C99.4264 34.5173 94.9741 24.4575 87.7242 16.49C79.3478 7.28439 67.8391 1.53382 55.4481 0.362527C43.0571 -0.808766 30.6747 2.68343 20.7217 10.1564C10.7686 17.6294 3.9605 28.5458 1.62831 40.7716C-0.703876 52.9973 1.60753 65.6534 8.11067 76.2656C14.6138 86.8777 24.8411 94.6829 36.7931 98.1553C48.7452 101.628 61.5626 100.518 72.7396 95.042C82.4134 90.3029 90.2564 82.5885 95.1617 73.0964C96.4294 70.6431 95.1501 67.7228 92.5826 66.7062C90.0151 65.6897 87.1364 66.967 85.8077 69.3878C81.8616 76.577 75.7772 82.4184 68.3402 86.0617C59.3986 90.4422 49.1447 91.3303 39.583 88.5524C30.0214 85.7745 21.8396 79.5303 16.6371 71.0406C11.4346 62.5508 9.58543 52.426 11.4512 42.6454C13.3169 32.8648 18.7634 24.1316 26.7259 18.1532C34.6883 12.1749 44.5942 9.38111 54.507 10.3181C64.4198 11.2552 73.6267 15.8556 80.3279 23.2201C85.9014 29.3453 89.4082 37.0163 90.4307 45.1534C90.7749 47.8932 92.9813 50.1406 95.7427 50.1406Z" fill="url(#paint0_linear_1409_32790)"/>
<path id="Vector" d="M54.0743 47.6554H53.2268V46.808C53.2268 45.4346 52.1162 44.3242 50.7426 44.3242C49.3691 44.3242 48.2585 45.4346 48.2585 46.808V47.6554H47.411C46.0374 47.6554 44.9269 48.7658 44.9269 50.1392C44.9269 51.5126 46.0374 52.623 47.411 52.623H48.2585V53.4704C48.2585 54.8438 49.3691 55.9542 50.7426 55.9542C52.1162 55.9542 53.2268 54.8438 53.2268 53.4704V52.623H54.0743C55.4479 52.623 56.5584 51.5126 56.5584 50.1392C56.5584 48.7658 55.4479 47.6554 54.0743 47.6554Z" fill="#FF59F1"/>
</g>
<defs>
<linearGradient id="paint0_linear_1409_32790" x1="8.67454" y1="31.7894" x2="98.7632" y2="61.8356" gradientUnits="userSpaceOnUse">
<stop stop-color="#8200FF"/>
<stop offset="0.617501" stop-color="#FFC7EE"/>
<stop offset="1" stop-color="white"/>
</linearGradient>
</defs>
</svg>
