<svg xmlns="http://www.w3.org/2000/svg" width="108" height="28" viewBox="0 0 108 28" fill="none">
  <path d="M39.3184 26.5193C38.2854 26.5193 37.4401 25.6742 37.4401 24.6413V18.7725C37.4401 17.1449 36.1097 15.8146 34.4819 15.8146C32.854 15.8146 31.5236 17.1449 31.5236 18.7725V24.6413C31.5236 25.6742 30.6784 26.5193 29.6454 26.5193C28.6123 26.5193 27.7671 25.6742 27.7671 24.6413V18.7725C27.7671 15.0634 30.788 12.0586 34.4819 12.0586C38.1914 12.0586 41.1967 15.0791 41.1967 18.7725V24.6413C41.1967 25.6742 40.3514 26.5193 39.3184 26.5193Z" fill="#8200FF"/>
  <path d="M57.3653 15.8927H50.181C49.148 15.8927 48.3027 15.0476 48.3027 14.0147C48.3027 12.9818 49.148 12.1367 50.181 12.1367H57.3653C58.3984 12.1367 59.2436 12.9818 59.2436 14.0147C59.2436 15.0476 58.3984 15.8927 57.3653 15.8927Z" fill="#8200FF"/>
  <path d="M5.36888 26.5192C5.1654 26.5192 4.94627 26.4879 4.7428 26.4096C3.75671 26.0497 3.25584 24.9854 3.60019 24.0151C3.70975 23.6865 5.30627 19.2262 7.09062 14.5312C4.21062 11.9333 1.51845 8.81891 1.08019 8.30246C0.407144 7.51996 0.501057 6.33055 1.28367 5.6576C2.06627 4.98464 3.25584 5.07854 3.92888 5.86105C5.1028 7.23825 6.82453 9.10061 8.54627 10.7439C9.51671 8.30246 10.4402 6.08015 11.1445 4.71859C11.8176 3.35703 13.3515 1.13472 15.9028 1.52597C18.548 1.91723 20.6611 5.15679 21.5219 10.1648C22.2419 14.2964 20.8802 16.3936 19.5967 17.4108C17.7028 18.9289 14.7915 19.101 11.8019 17.8803C11.2854 17.6769 10.7376 17.3639 10.1584 16.9726C8.53062 21.3077 7.15323 25.1889 7.12193 25.2671C6.85584 26.034 6.13584 26.5192 5.36888 26.5192ZM11.5515 13.3731C12.1932 13.8582 12.7724 14.2182 13.2419 14.406C14.8854 15.0789 16.4976 15.1102 17.2645 14.4842C18.188 13.733 18.0158 11.855 17.8437 10.8065C17.2645 7.45736 16.1689 5.8454 15.6054 5.39154C15.4802 5.28199 15.308 5.29764 15.1828 5.40719C15.0106 5.57935 14.7602 5.89235 14.4941 6.42445C13.7271 7.89556 12.6471 10.5248 11.5515 13.3731Z" fill="#8200FF"/>
  <path d="M26.3898 23.9526L23.7133 16.4563C23.3533 15.4547 21.9602 15.3138 21.4437 16.2528C21.2246 16.6441 20.9741 16.9884 20.7237 17.2701C20.4107 17.6144 20.3168 18.1152 20.4733 18.5534L22.8837 25.2829C23.1655 26.0498 23.8855 26.5349 24.6524 26.5349C24.8715 26.5349 25.0907 26.5036 25.3098 26.4097C26.2646 26.0341 26.7341 24.9229 26.3898 23.9526Z" fill="#8200FF"/>
  <path d="M72.0629 10.8855C72.0629 10.8855 71.8438 11.0264 71.8125 11.1047C71.7812 11.0264 71.562 10.8855 71.562 10.8855C70.7951 10.2752 69.2768 10.5256 69.5742 12.2158C69.8716 13.906 71.8281 14.5633 71.8281 14.5633C71.8281 14.5633 73.7846 13.906 74.082 12.2158C74.3794 10.5256 72.8455 10.2752 72.0629 10.8855Z" fill="#FF59F1"/>
  <path d="M70.4349 26.4882C70.1531 26.4882 69.8714 26.4256 69.6053 26.2848C69.0262 25.9718 68.6662 25.3771 68.6662 24.7354V22.7635C66.7097 22.1688 64.941 21.0264 63.5949 19.4457C61.9044 17.4895 60.981 14.9698 60.981 12.3719C60.981 6.39354 65.8331 1.52637 71.8123 1.52637C77.7914 1.52637 82.6436 6.40919 82.6436 12.3875C82.6436 15.7992 81.094 18.9449 78.3862 21.0107C76.1479 23.0296 71.6088 26.0657 71.421 26.1909C71.1236 26.3943 70.7792 26.4882 70.4349 26.4882ZM71.8123 5.06329C67.7896 5.06329 64.5183 8.3498 64.5183 12.3719C64.5183 15.987 67.101 19.0232 70.654 19.6022H70.701C71.5618 19.7274 72.2036 20.4786 72.2036 21.3394C73.5497 20.3691 75.0992 19.211 76.0697 18.3346C76.1166 18.3033 76.1479 18.2563 76.1949 18.225C78.0575 16.8321 79.1218 14.6881 79.1218 12.3719C79.1218 8.3498 75.8349 5.06329 71.8123 5.06329Z" fill="#8200FF"/>
  <path d="M44.8905 26.5036C43.8574 26.5036 43.0122 25.6585 43.0122 24.6256V13.9522C43.0122 12.9193 43.8574 12.0742 44.8905 12.0742C45.9235 12.0742 46.7687 12.9193 46.7687 13.9522V24.6256C46.7687 25.6741 45.9392 26.5036 44.8905 26.5036Z" fill="#8200FF"/>
  <path d="M46.6906 6.58098H46.2367V6.12713C46.2367 5.39158 45.6419 4.79688 44.9063 4.79688C44.1706 4.79688 43.5759 5.39158 43.5759 6.12713V6.58098H43.1219C42.3863 6.58098 41.7915 7.17569 41.7915 7.91124C41.7915 8.64679 42.3863 9.2415 43.1219 9.2415H43.5759V9.69535C43.5759 10.4309 44.1706 11.0256 44.9063 11.0256C45.6419 11.0256 46.2367 10.4309 46.2367 9.69535V9.2415H46.6906C47.4263 9.2415 48.0211 8.64679 48.0211 7.91124C48.0211 7.17569 47.4263 6.58098 46.6906 6.58098Z" fill="#FF59F1"/>
  <path d="M86.2434 26.4879C85.2104 26.4723 84.3965 25.5489 84.3965 24.4691V5.78288C84.3965 3.74837 85.4608 2.12076 87.12 1.61996C88.8573 1.10351 90.7356 1.96426 91.8 3.76402L102.85 22.1842L102.866 22.1998C103.085 22.5754 103.336 22.5441 103.476 22.5128C103.586 22.4815 103.617 22.3876 103.633 22.1998V3.49797C103.633 2.41811 104.447 1.49476 105.48 1.47911C106.529 1.46346 107.39 2.33986 107.39 3.43537V22.1998C107.39 24.2187 106.278 25.8619 104.541 26.3784C102.725 26.9105 100.737 26.0497 99.6887 24.2813L88.6226 5.86113L88.6069 5.84548C88.6069 5.84548 88.6069 5.84548 88.6069 5.82983C88.4817 5.61073 88.1687 5.72028 88.153 5.97068C88.153 6.01763 88.153 6.08023 88.153 6.11153V24.5473C88.153 25.6272 87.2921 26.5036 86.2434 26.4879Z" fill="#8200FF"/>
</svg>