<svg xmlns="http://www.w3.org/2000/svg" width="29" height="29" viewBox="0 0 29 29" fill="none">
  <mask id="mask0_1817_37195" style="mask-type:alpha" maskUnits="userSpaceOnUse" x="0" y="0" width="29" height="29">
    <rect x="0.173828" y="0.156006" width="28" height="28" fill="#D9D9D9"/>
  </mask>
  <g mask="url(#mask0_1817_37195)">
    <path d="M24.2072 24.656L18.7238 19.1727C17.9266 19.7949 17.0467 20.281 16.0842 20.631C15.1217 20.981 14.0961 21.156 13.0072 21.156C10.4016 21.156 8.19466 20.2519 6.38633 18.4435C4.57799 16.6352 3.67383 14.4283 3.67383 11.8227C3.67383 9.21716 4.57799 7.01021 6.38633 5.20188C8.19466 3.39355 10.4016 2.48938 13.0072 2.48938C15.6127 2.48938 17.8197 3.39355 19.628 5.20188C21.4363 7.01021 22.3405 9.21716 22.3405 11.8227C22.3405 12.9116 22.1655 13.9373 21.8155 14.8998C21.4655 15.8623 20.9794 16.7422 20.3572 17.5394L25.8405 23.0227L24.2072 24.656ZM13.0072 18.8227C14.9516 18.8227 16.6044 18.1422 17.9655 16.781C19.3266 15.4199 20.0072 13.7672 20.0072 11.8227C20.0072 9.87827 19.3266 8.22549 17.9655 6.86438C16.6044 5.50327 14.9516 4.82271 13.0072 4.82271C11.0627 4.82271 9.40994 5.50327 8.04883 6.86438C6.68772 8.22549 6.00716 9.87827 6.00716 11.8227C6.00716 13.7672 6.68772 15.4199 8.04883 16.781C9.40994 18.1422 11.0627 18.8227 13.0072 18.8227Z" fill="#4F4F4F"/>
  </g>
</svg>